<svg width="755" height="4112" viewBox="0 0 755 4112" fill="none" xmlns="http://www.w3.org/2000/svg">
<path d="M728.469 3.5C710 22 703.894 32.2732 700 48.5C696.89 61.4578 684.02 80.8783 682 93C676.35 126.896 687.66 136.264 687.66 170.628C687.66 199.686 690.898 226.577 694.287 255.385C698.974 295.226 729.335 331.091 737.189 368.395C751.5 394 751.5 386.062 751.5 416.5C751.5 446.938 748.871 449.279 728.469 473.761C714.172 490.917 685.316 495.189 669.174 508.641C664.441 512.584 654.682 514.79 648.595 516.663C635.721 520.624 629.738 529.095 617.203 532.01C596.345 536.861 571.139 532.49 553.025 544.567C546.709 548.777 532.319 561.568 524.424 562.007C476.14 564.689 396.922 579.747 364.327 618.86C326.219 664.589 246.089 619.537 195.161 646.415C130.884 680.339 103.777 726.904 103.777 800.583C103.777 845.117 98 853 79.5 865.5C67.3192 879.27 33.7495 929.5 15 929.5C0.0502396 929.5 16.9907 896.665 28.4369 894.757C62.9286 889.009 69.6325 902.171 61.2237 929.5C54.0118 952.939 17.5616 955.138 2.97488 974.283C-29.5401 1016.96 -44.0705 1047.8 -59.1107 1099.5C-77.2897 1161.99 -72.0161 1228.64 -72.0161 1293.08C-72.0161 1320.72 -76.1077 1395.07 -42.0197 1408.18C-25.9238 1414.37 8.83856 1415.86 25.6466 1415.86C65.8846 1415.86 108.163 1426.67 147.027 1436.09C186.36 1445.62 223.532 1467.17 262.13 1480.04C281.993 1486.66 319.145 1489.72 331.191 1507.24C337.954 1517.08 386.528 1524.34 398.858 1533.75C428.334 1556.25 447.051 1582.58 480.824 1601.42C508.727 1616.98 535.937 1635.25 558.606 1657.92C584.332 1683.65 603.28 1719.76 612.669 1754.19C620.192 1781.77 636.03 1819.53 622.086 1849.06C609.816 1875.05 586.591 1894.66 568.372 1916.03C556.344 1930.14 548.641 1955.5 532.097 1963.47C510.22 1974 489.764 1999.26 471.407 2015.09C436.406 2045.26 405.215 2073.39 374.442 2108.22C341.368 2145.64 322.344 2177.26 301.893 2222.97C287.12 2255.99 285.848 2292.98 285.848 2329.35C285.848 2406.6 200.962 2604.7 166.5 2670C147.568 2705.87 133.813 2663.67 109 2694C94.8257 2711.32 133.404 2781.52 126.5 2803C115.463 2837.34 55.6122 2907 22.5 2953.5C-17.5 2971 -29.0172 3366.5 -51 3481.5C-95.6895 3559 70.5 3831.83 70.5 3870.5C70.5 3905.92 115.428 3903.53 140.5 3931.5C126.5 3960.66 175.814 4043.34 209 4092.51C229.28 4122.55 300.994 4018.63 345 4024.5C378.358 4028.95 319.557 3968.89 353.5 3967.64C377.503 3966.75 335.035 4010.55 317 3987.17C283.912 3944.28 418.513 3941.85 376.145 3967.64C351.725 3982.5 311.262 4052.04 330.104 4069.83C367.802 4105.44 464.007 4089.04 477.992 4037.4C479.388 3993.5 389.467 4009.94 376.145 4005.5C359.482 3999.95 367.109 3985.59 387.655 4000C403.342 4011 315.487 4075.4 376.145 4073.67C406.576 4072.8 432.442 4023.82 439.5 4000C442.692 3989.23 438.436 3940.6 444.5 3931.5C451.153 3921.52 469.97 3952 485.666 3967.64C518.5 3994 488.535 4018.61 485.666 4020.31C463.863 4033.19 435.942 4041.06 410.326 4042.28C390.277 4043.23 311.184 4092.51 341.963 4092.51C392.207 4092.51 407.685 3914 420.093 4010C420.093 4084.69 286.635 4056.8 264 4061.11C232.859 4067.05 304 3986.29 304 4015.77C304 4028.53 304 4084.51 311.5 4101.5C331 4112 410.326 4061.11 420.093 4079.5C420.093 4157 430.115 4056.62 444.5 4054C473.071 4048.81 483.265 4060.74 506 4069.83C528.009 4078.64 518.651 4085 544 4085C608.5 4069.83 681.5 4096.5 711.685 4061.11" stroke="black" stroke-width="6" stroke-linecap="round"/>
</svg>
