<svg width="268" height="272" viewBox="0 0 268 272" fill="none" xmlns="http://www.w3.org/2000/svg">
<path d="M192.763 174.776C192.521 163.721 192.054 152.538 191.994 141.538C191.936 131.017 188.109 127.375 184.841 118.148C179.488 103.034 167.253 97.1967 159.176 84.6991C153.257 75.5401 143.431 65.4259 133.578 60.4005C110.624 48.6935 89.0817 61.7582 73.1052 79.3803C64.9978 88.3228 56.3137 96.9811 48.7813 106.41C41.2712 115.811 41.8476 123.488 37.9388 134.21C29.9742 156.057 39.7 182.153 50.8766 201.748C58.0887 214.392 83.4487 237.997 98.6394 236.688C105.384 236.107 112.116 239.011 119.09 239.595C129.769 240.49 135.881 239.937 146.447 237.493C163.223 233.612 182.746 205.392 184.958 190.604" stroke="black" stroke-width="6" stroke-linecap="round"/>
<path d="M152.365 85.7955C144.803 78.9398 132.212 70.7564 121.275 73.97C107.079 78.1412 126.185 84.625 132.799 87.3259C133.412 87.5763 143.336 88.1268 142.803 89.1242C139.503 95.2887 132.936 100.715 132.863 108.108C132.827 111.749 129.334 123.008 134.384 113.849C136.127 110.687 141.91 85.264 146.469 93.9026C150.663 101.85 144.924 116.816 144.972 125.63C144.984 127.895 142.458 143.047 145.909 135.024C150.806 123.637 156.123 108.707 152.968 96.1586C150.652 86.9497 161.832 104 163.175 107.958C166.348 117.306 163.089 128.047 169.566 137.202C175.445 145.513 157.399 100.176 164.941 107.014C169.215 110.888 174.975 114.679 178.049 119.624C180.605 123.737 185.511 135.872 186.816 131.208C188.832 124.002 177.271 114.135 175.712 106.963C174.87 103.091 175.057 99.8241 172.084 97.1292C166.794 92.333 185.269 102.641 191.673 105.8C194.793 107.338 180.983 95.381 178.066 92.7363C169.104 84.6108 158.135 84.483 149.236 76.4143C144.486 72.1081 127.405 56.6221 141.254 69.1777C146.848 74.2493 139.354 67.5618 138.042 65.9026C137.149 64.7728 133.464 53.46 136.37 55.1152C144.013 59.4689 159.497 72.374 157.249 80.4077" stroke="black" stroke-width="6" stroke-linecap="round"/>
<path d="M162.805 88.7164C174.719 76.3503 218.203 48.2809 205.336 59.6507C193.649 69.9769 178.126 75.2911 166.162 85.2149C154.314 95.0416 164.939 78.7805 170.816 77.0734C178.283 74.9046 190.661 71.4328 196.544 76.7667" stroke="black" stroke-width="6" stroke-linecap="round"/>
</svg>
