<svg width="268" height="272" viewBox="0 0 268 272" fill="none" xmlns="http://www.w3.org/2000/svg">
<path d="M71.4495 190.094C73.0173 200.388 79.2969 210.245 89.166 215.151C93.2978 217.204 104.056 213.449 107.917 212.557C124.345 208.761 133.909 200.686 147.256 190.593C166.415 176.106 171.33 148.472 167.904 125.981C167.355 122.371 167.559 115.955 165.74 112.629C163.339 108.238 158.187 107.505 154.616 105.028C150.639 102.269 146.532 100.39 142.506 97.8386C138.117 95.0574 129.974 85.9034 124.144 86.6265C111.488 88.1964 105.558 91.6025 101.581 104.66C94.8292 126.834 81.454 151.82 89.5997 175.808C95.5321 193.278 116.296 172.199 121.716 164.109C135.397 143.691 128.67 125.408 105.919 118.074C96.6133 115.074 85.7634 112.074 75.9333 111.905C70.6299 111.814 69.6366 114.045 67.4948 118.493C56.5931 141.13 50.8897 180.384 65.1291 202.839C73.0593 215.345 86.411 230.083 102.195 226.651C114.723 223.927 121.337 214.325 126.866 203.517C132.24 193.012 139.017 182.35 143.205 171.31C152.022 148.061 143.784 116.392 123.6 101.569C120.508 99.2978 118.576 94.0621 114.494 93.0058C110.462 91.9627 106.764 88.5356 102.538 87.6915C97.8019 86.7457 92.5812 87.2536 87.8035 87.3825C79.0069 87.6199 76.7399 85.0141 72.2382 94.5317C69.9809 99.3043 67.4436 103.636 64.8813 108.221C61.7346 113.851 61.831 120.77 59.7137 126.813C55.7274 138.191 54.2948 149.116 54.6514 161.165C54.9455 171.099 57.0811 180.993 58.5763 190.81C59.2923 195.512 61.0198 198.798 64.9537 201.687" stroke="#FF6332" stroke-width="59" stroke-linecap="round"/>
</svg>
