<svg width="562" height="548" viewBox="0 0 562 548" fill="none" xmlns="http://www.w3.org/2000/svg">
<path d="M293.644 544.58C261.275 544.874 227.634 538.943 192.713 526.503C171.094 518.761 105.14 495.547 58.7667 427.079C46.7361 409.045 17.9275 360.262 14.3545 291.69C10.1408 210.083 32.182 144.963 76.4315 108.558C114.241 77.3138 155.387 76.9402 237.131 76.1981L252.218 76.0611C342.183 74.9608 396.497 74.4677 445.083 114.282C495.064 154.935 512.945 215.156 518.714 234.948C529.923 272.551 529.459 304.873 529.305 328.688C529.401 332.089 529.214 335.209 529.293 338.043C529.45 372.911 519.588 402.768 498.472 432.442C457.821 489.51 414.513 510.598 398.269 518.4C397.188 518.976 396.107 519.553 395.292 519.844C363.918 536.005 329.578 544.254 293.644 544.58ZM237.935 85.2625C157.837 85.9897 117.788 86.3533 82.1248 115.877C40.0219 150.562 19.0063 213.12 23.1403 291.894C26.6417 357.915 54.0389 405.293 65.7713 422.48C110.693 488.126 174.437 510.793 195.5 518.256C267.004 543.688 333.347 541.668 392.059 512.219C392.866 511.645 393.956 511.352 395.037 510.775C410.732 502.978 452.692 482.753 492.294 427.396C512.086 399.434 521.439 371 521.339 338.116C521.259 335.281 521.438 331.878 521.35 328.76C521.52 305.512 522 273.757 511.105 237.569C505.352 218.344 488.084 160.385 440.336 121.129C394 83.2786 343.81 84.0178 252.739 84.8446L237.935 85.2625Z" fill="#020203"/>
<path d="M297.408 168.509C284.474 167.719 271.576 168.085 258.706 169.319C249.397 170.242 239.575 172.325 232.351 178.442C225.128 184.558 221.372 196.148 226.313 204.794C231.245 213.151 241.744 215.112 251.117 216.213C270.412 218.411 289.991 220.896 308.537 216.737C316.995 214.951 326.461 210.267 328.101 201.293C329.036 196.082 326.932 190.31 324.041 185.701C320.28 179.65 314.908 174.766 309.032 171.331" fill="#ED6E37"/>
<path d="M216.829 138.728L223.231 121.903L274.626 91.8763L310.343 120.534L318.329 140.637L365.136 152.994L372.935 156.617L396.041 186.527L402.955 197.83L389.459 206.763L357.619 218.423L344.757 220.531L337.336 220.599L338.55 234.512L333.88 244.501L297.632 295.134C297.632 295.134 265.543 288.04 256.832 281.3C247.838 274.278 209.109 255.879 204.52 249.101C200.215 242.605 205.248 216.13 205.248 216.13C205.248 216.13 184.75 210.635 172.96 201.934C161.169 193.233 129.75 170.788 129.75 170.788L177.453 136.533L216.829 138.728Z" fill="#020203"/>
<path d="M224.199 165.945C230.582 156.704 251.022 156.494 269.26 156.593C276.441 156.519 314.013 156.419 317.589 166.131C318.495 168.989 316.354 171.591 312.879 175.928C311.007 178.241 303.496 186.633 288.972 191.083C267.604 197.897 235.479 195.074 225.719 181.412C225.143 180.558 219.404 172.589 224.199 165.945Z" fill="#ED4B18"/>
<path d="M289.097 170.078C293.931 148.716 297.405 126.809 300.342 104.908C301.675 93.959 303.016 83.2903 304.35 72.3413C305.683 61.3924 307.017 50.4434 306.998 39.2295C307.109 33.0604 306.682 26.8975 305.724 21.021C305.375 17.941 304.765 15.1444 304.148 12.0675C303.85 10.9495 304.12 10.9465 303.822 9.82843C303.502 7.86959 303.815 9.54816 303.815 9.54816C303.546 9.55122 303.036 10.6784 302.505 10.9648C301.153 10.6998 299.808 10.7151 298.456 10.4502C306.103 14.8488 302.894 26.0995 299.831 32.5825C297.539 37.6549 294.695 42.1729 292.672 47.2423C290.38 52.3147 288.365 57.6644 286.349 63.014C279.087 84.1232 275.627 106.591 273.512 129.043C272.222 141.674 271.476 154.579 270.724 167.203C274.221 167.163 277.719 167.123 280.947 167.087C282.135 129.506 296.026 94.0233 301.264 56.957C302.605 46.2883 303.676 35.6226 303.134 24.9754C302.954 17.9686 292.462 18.0879 292.911 25.0916C294.151 62.9253 280.537 98.6851 274.208 135.203C272.33 145.878 270.989 156.547 270.724 167.203C270.527 170.009 273.282 172.501 275.972 172.47C278.932 172.436 280.75 169.893 280.947 167.087C282.262 144.924 283.57 122.481 287.313 100.57C289.185 89.6154 291.602 78.9345 295.102 68.5216C298.602 58.1087 303.469 48.5213 308.06 38.6567C312.665 29.3526 315.351 18.6686 310.257 8.91418C307.99 4.4543 303.003 -1.09606 297.949 1.20425C293.157 3.22124 292.501 9.11613 293.423 13.5913C294.374 19.1876 295.594 24.7808 296.007 30.3831C296.434 36.5461 296.323 42.7151 295.944 48.8872C295.177 60.9512 293.603 73.0243 292.022 84.8171C288.699 112.61 284.837 140.409 278.54 167.675C277.63 174.133 287.656 176.823 289.097 170.078Z" fill="#020203"/>
</svg>
