<svg width="562" height="548" viewBox="0 0 562 548" fill="none" xmlns="http://www.w3.org/2000/svg">
<path d="M262.124 69.4015C180.926 70.1388 140.601 70.505 103.863 100.89C37.0871 155.929 42.1724 258.794 43.3262 280.33C47.0108 352.873 79.6847 402.473 86.8453 413.181C131.502 479.115 193.611 502.082 218.554 510.928C241.554 518.94 328.025 549.624 418.405 504.577C431.938 497.934 477.215 478.528 519.982 418.604C543.215 386.074 550.059 356.244 549.78 326.762C549.675 303.516 551.948 267.207 539.506 224.794C533.737 205.001 516.17 146.192 467.308 106.378C417.599 65.7218 361.976 68.4949 262.124 69.4015Z" fill="#FF6332"/>
</svg>
