<svg width="101" height="81" viewBox="0 0 101 81" fill="none" xmlns="http://www.w3.org/2000/svg">
<path d="M61.2966 9.80885C59.2371 22.4404 55.8276 32.292 49.383 43.1648C44.0188 52.215 36.0857 66.3754 34.9035 77.0736C34.2114 83.3359 34.9493 55.8857 35.27 53.4849C36.9485 40.9213 42.8242 29.5923 44.7092 17.2725C45.2915 13.4674 44.1926 9.44314 44.9842 5.66239C45.67 2.38673 47.5498 2.05358 49.1997 5.10953C54.4725 14.8756 58.0707 25.6233 62.9462 35.609C66.6773 43.2509 71.4526 49.2268 75.7762 56.2492C76.0776 56.7388 78.2439 60.0606 77.2425 60.4878C67.2973 64.73 45.9182 55.78 36.2781 53.2084C27.607 50.8954 10.5414 50.8063 3.10339 44.8234C2.52991 44.3621 4.49673 44.3494 5.21117 44.1784C10.378 42.9415 14.784 41.6936 20.0573 40.3083C32.8279 36.9537 45.758 34.1663 58.4557 30.5411C68.0346 27.8063 78.8282 23.3093 88.9727 23.0775C91.3227 23.0238 99.4625 22.0196 97.7705 22.8932C85.2408 29.3625 78.7886 41.4005 67.2534 48.5091C57.1593 54.7296 43.0375 64.7709 38.2026 74.4936" stroke="black" stroke-width="6" stroke-linecap="round"/>
</svg>
