<svg width="393" height="52" viewBox="0 0 393 52" fill="none" xmlns="http://www.w3.org/2000/svg">
<path d="M1.52513 23.5251C0.158291 24.892 0.158291 27.108 1.52513 28.4749L23.799 50.7487C25.1658 52.1156 27.3819 52.1156 28.7487 50.7487C30.1156 49.3819 30.1156 47.1658 28.7487 45.799L8.94975 26L28.7487 6.20101C30.1156 4.83418 30.1156 2.6181 28.7487 1.25126C27.3819 -0.115572 25.1658 -0.115572 23.799 1.25126L1.52513 23.5251ZM391.975 28.4749C393.342 27.108 393.342 24.892 391.975 23.5251L369.701 1.25126C368.334 -0.115572 366.118 -0.115572 364.751 1.25126C363.384 2.6181 363.384 4.83418 364.751 6.20101L384.55 26L364.751 45.799C363.384 47.1658 363.384 49.3819 364.751 50.7487C366.118 52.1156 368.334 52.1156 369.701 50.7487L391.975 28.4749ZM4 29.5H389.5V22.5H4V29.5Z" fill="white" fill-opacity="0.5"/>
</svg>
