<svg width="248" height="37" viewBox="0 0 248 37" fill="none" xmlns="http://www.w3.org/2000/svg">
<path d="M19.5932 18.4467C19.5932 24.2837 15.3592 28.1602 9.95423 28.1602C4.6393 28.1602 0.0450418 24.5511 0 16.6644C0 3.29719 6.66618 0.980209 17.206 0.980209V4.63392C8.55794 4.63392 4.54922 5.97064 3.96368 13.2781C5.35997 10.6937 8.06248 9.357 10.9452 9.357C15.8097 9.40156 19.5932 12.9662 19.5932 18.4467ZM15.6745 18.6695C15.6745 15.0603 13.1972 12.6988 9.95423 12.6988C6.75627 12.6988 3.91863 15.0158 3.91863 18.6695C3.91863 22.4569 6.44097 24.8184 9.72902 24.8184C13.0171 24.8184 15.6745 22.4123 15.6745 18.6695Z" fill="#201D16"/>
<path d="M74.6793 24.1501V32.6606H70.7606V27.7593H54.6357V32.6606H50.717V24.1501H54.0501C54.9059 23.4818 55.4464 22.056 55.8968 19.3825L57.6084 8.95607H71.2111V24.1501H74.6793ZM67.2924 24.1501V12.5652H60.9415L59.8155 19.5607C59.4551 21.744 59.0047 23.1699 58.3291 24.1501H67.2924Z" fill="#201D16"/>
<path d="M97.5605 18.3576C97.5605 24.1055 93.867 28.2048 88.7773 28.2048C85.8046 28.2048 83.5074 26.779 82.1111 24.6402V36.3588H78.1925V8.956H82.1111V12.1641C83.5074 10.0254 85.7595 8.55499 88.7773 8.55499C93.777 8.51043 97.5605 12.6097 97.5605 18.3576ZM93.5968 18.3576C93.5968 14.7485 91.2546 12.2087 87.9215 12.2087C84.5884 12.2087 82.0661 14.7485 82.0661 18.3576C82.0661 21.9668 84.5884 24.5065 87.9215 24.5065C91.2096 24.5065 93.5968 21.9668 93.5968 18.3576Z" fill="#201D16"/>
<path d="M117.694 21.1648C117.694 25.6651 114.631 27.7593 110.758 27.7593H101.524V8.95607H105.443V14.8376H110.893C114.811 14.8376 117.694 16.6645 117.694 21.1648ZM113.776 21.1648C113.776 19.4271 113.1 18.2686 110.713 18.2686H105.398V24.061H110.578C113.01 24.061 113.776 22.858 113.776 21.1648ZM124.405 8.95607V27.8039H120.487V8.95607H124.405Z" fill="#201D16"/>
<path d="M146.656 8.95604V27.8038H142.737V19.9172L142.963 13.9465L133.549 27.8038H128.955V8.95604H132.873V16.8427L132.648 22.7243L142.062 8.91148H146.656V8.95604ZM132.153 0.802033V0H135.26V0.668361C135.26 2.22787 136.251 3.16358 137.828 3.16358C139.359 3.16358 140.35 2.18331 140.35 0.668361V0H143.458V0.802033C143.458 4.14384 140.846 6.10436 137.828 6.10436C134.81 6.10436 132.153 4.09928 132.153 0.802033Z" fill="#201D16"/>
<path d="M184.086 24.1501V32.6606H180.167V27.7593H164.042V32.6606H160.124V24.1501H163.457C164.312 23.4818 164.853 22.056 165.303 19.3825L167.015 8.95607H180.618V24.1501H184.086ZM176.744 24.1501V12.5652H170.393L169.267 19.5607C168.907 21.744 168.456 23.1699 167.781 24.1501H176.744Z" fill="#201D16"/>
<path d="M205.435 19.4271H189.941C190.256 22.9025 192.689 24.8185 195.887 24.8185C198.184 24.8185 200.076 23.8382 200.976 22.0114H205.03C203.544 26.2443 199.895 28.2049 195.842 28.2049C190.076 28.2049 185.932 24.1056 185.932 18.4022C185.932 12.6989 190.031 8.55505 195.751 8.55505C201.967 8.51049 205.841 13.2336 205.435 19.4271ZM190.166 16.2635H201.247C200.661 13.6791 198.679 11.8969 195.797 11.8969C192.824 11.8969 190.842 13.7237 190.166 16.2635Z" fill="#201D16"/>
<path d="M227.191 8.95607V27.8039H223.272V20.0063H213.183V27.7593H209.264V8.95607H213.183V16.3526H223.272V8.95607H227.191Z" fill="#201D16"/>
<path d="M248 21.1648C248 25.6651 244.937 27.7593 241.064 27.7593H231.785V8.95607H235.704V14.8376H241.199C245.072 14.8376 248 16.6645 248 21.1648ZM244.036 21.1648C244.036 19.4271 243.361 18.2686 240.973 18.2686H235.659V24.061H240.928C243.316 24.061 244.036 22.858 244.036 21.1648Z" fill="#201D16"/>
<path d="M36.2587 31.8585C28.0611 31.8585 21.3949 25.264 21.3949 17.1546C21.3949 9.04513 28.0611 2.45064 36.2587 2.45064C44.4563 2.45064 51.1225 9.04513 51.1225 17.1546C51.1225 25.264 44.4563 31.8585 36.2587 31.8585ZM36.2587 5.5251C29.7727 5.5251 24.5028 10.7383 24.5028 17.1546C24.5028 23.5708 29.7727 28.7841 36.2587 28.7841C42.7447 28.7841 48.0146 23.5708 48.0146 17.1546C48.0146 10.7383 42.7447 5.5251 36.2587 5.5251Z" fill="#52AE32"/>
<path d="M43.3302 17.6001L37.8351 14.7039L39.1413 14.0355C43.2851 11.8968 43.4203 11.8522 43.5103 11.8522L43.8707 13.3226L43.6905 12.5651L43.9608 13.2781C43.7806 13.3672 42.4293 14.0355 41.1231 14.7039L44.0508 16.2188L43.3302 17.6001Z" fill="#52AE32"/>
<path d="M29.4574 17.6001L28.7817 16.2634L31.7095 14.7484L28.7817 13.2335L29.4574 11.8968L35.0876 14.7484L29.4574 17.6001Z" fill="#52AE32"/>
<path d="M37.2045 23.749V22.2341C37.6549 22.2341 38.0153 21.8776 38.0153 21.432C38.0153 20.7637 37.0243 20.4072 36.5739 20.9419L35.4028 19.9616C35.8533 19.4269 36.5289 19.115 37.2045 19.115C38.5107 19.115 39.5467 20.1399 39.5467 21.432C39.5917 22.6796 38.5107 23.749 37.2045 23.749Z" fill="#52AE32"/>
<path d="M37.2045 26.868C36.5289 26.868 35.8533 26.5561 35.4028 26.066L36.5739 25.0857C37.0243 25.6204 38.0153 25.2639 38.0153 24.551C38.0153 24.1054 37.6549 23.749 37.2045 23.749V22.234C38.5107 22.234 39.5467 23.2589 39.5467 24.551C39.5467 25.8432 38.5107 26.868 37.2045 26.868Z" fill="#52AE32"/>
</svg>
