<svg width="164" height="233" viewBox="0 0 164 233" fill="none" xmlns="http://www.w3.org/2000/svg">
<path d="M58.491 152.55H101.772V145.091C101.772 134.836 105.509 130.485 117.03 124.269C141.317 111.528 160 99.7182 160 68.6409C160 27.308 126.994 4 84.024 4C39.8084 4 5.86826 29.1726 4 77.9641H48.8383C50.7066 51.5483 65.0299 45.3329 82.1557 45.3329C105.509 45.3329 115.162 56.2099 115.162 70.1947C115.162 82.0041 108 86.355 90.8742 95.3674C67.521 107.798 58.491 113.703 58.491 136.389V152.55ZM79.976 229C96.479 229 108.623 218.434 108.623 202.584C108.623 186.735 96.479 176.168 79.976 176.168C63.7844 176.168 51.6407 186.735 51.6407 202.584C51.6407 218.434 63.7844 229 79.976 229Z" stroke="#0029FF" stroke-width="7"/>
</svg>
