<svg width="626" height="430" viewBox="0 0 626 430" fill="none" xmlns="http://www.w3.org/2000/svg">
<path d="M211.769 212.105C256.724 212.282 289.329 247.853 290.164 248.7L265.278 271.386C265.278 271.386 241.034 245.131 211.065 245.012C194.415 244.947 177.798 253.32 162.05 270.979L136.987 248.096C160.201 223.715 185.13 212 211.769 212.105Z" stroke="#32FF2E" stroke-width="5"/>
<path d="M414.061 212.902C440.701 213.007 465.725 225.764 488.294 249.481L463.408 272.166C447.525 255.227 430.839 245.878 414.189 245.813C384.22 245.695 360.176 270.915 360.18 271.759L335.116 248.876C336.775 247.195 369.107 212.724 414.061 212.902Z" stroke="#32FF2E" stroke-width="5"/>
<path d="M363.042 365.438C356.641 432.078 337.714 488.542 314.405 488.45C291.927 488.361 271.721 430.055 264.808 365.05L363.042 365.438Z" stroke="#32FF2E" stroke-width="5"/>
<path d="M314.131 631.905C143.472 631.232 3.89828 489.757 3.22173 315.92C2.54846 142.926 141.025 2.54847 311.685 3.22174C482.344 3.895 621.918 145.37 622.591 318.363C624.1 492.204 485.623 632.582 314.131 631.905ZM311.947 70.7314C177.917 70.2026 69.2918 180.319 69.8206 316.183C70.3493 452.046 179.835 563.023 313.865 563.552C447.896 564.08 556.521 453.964 555.992 318.101C556.296 182.241 446.81 71.2634 311.947 70.7314Z" stroke="#32FF2E" stroke-width="5"/>
</svg>
