<svg xmlns="http://www.w3.org/2000/svg" viewBox="0 0 73.99 73.99">
  <defs>
    <style>.cls-1{fill:#00dc23;}
    </style>
  </defs>
  <g id="Слой_2" data-name="Слой 2">
    <g id="Режим_изоляции" data-name="Режим изоляции">
      <path class="cls-1" d="M37,74A37,37,0,1,1,74,37,37,37,0,0,1,37,74M37,8A29,29,0,1,0,66,37,29,29,0,0,0,37,8"/>
      <path class="cls-1" d="M55.36,43.65C53,51.48,45.66,58.17,37,58.17s-15.66-6.9-18.2-14.52Z"/>
      <polygon class="cls-1" points="25.88 20.24 28.92 26.41 35.73 27.39 30.8 32.2 31.97 38.97 25.88 35.77 19.79 38.97 20.95 32.2 16.03 27.39 22.84 26.41 25.88 20.24"/>
      <polygon class="cls-1" points="48.52 20.24 51.56 26.41 58.37 27.39 53.44 32.2 54.61 38.97 48.52 35.77 42.43 38.97 43.59 32.2 38.67 27.39 45.48 26.41 48.52 20.24"/>
    </g>
  </g>
</svg>