<svg xmlns="http://www.w3.org/2000/svg" viewBox="0 0 462.51 449.3">
  <defs>
    <style>.cls-1{fill:#00dc23;}
    </style>
  </defs>
  <g id="Слой_2" data-name="Слой 2">
    <g id="Слой_1-2" data-name="Слой 1">
      <path class="cls-1" d="M167.45,199c30.08,0,52,23.37,52.88,24.37L203.77,238.6c-.14-.14-16.25-17.1-36.32-17.1h-.14c-11.47,0-22.57,5.8-33,17.1l-16.57-15.27c14.91-16.17,31.63-24.37,49.7-24.37"/>
      <path class="cls-1" d="M303.11,199c18.07,0,34.78,8.2,49.69,24.37L336.23,238.6c-10.46-11.35-21.61-17.1-33.12-17.1-20,0-36.17,16.93-36.32,17.1l-16.57-15.27c.92-1,22.81-24.37,52.89-24.37"/>
      <path class="cls-1" d="M235.27,342.83a135.31,135.31,0,0,1-61.55-14.75L184,308a113.25,113.25,0,0,0,102.63,0l10.25,20.06a135.33,135.33,0,0,1-61.57,14.76"/>
      <path class="cls-1" d="M235.28,449.3c-115,0-208.66-93.6-208.66-208.66S120.23,32,235.28,32s208.65,93.6,208.65,208.65S350.33,449.3,235.28,449.3m0-372.25c-90.2,0-163.59,73.39-163.59,163.59s73.39,163.59,163.59,163.59,163.59-73.38,163.59-163.59S325.49,77.05,235.28,77.05"/>
      <path class="cls-1" d="M299.2,0a42.92,42.92,0,0,1,31.91,14.21,43,43,0,0,1,75,28.82c0,41-74.93,88.53-74.93,88.53s-75-47.48-75-88.47A43.08,43.08,0,0,1,299.2,0"/>
      <path class="cls-1" d="M355.62,272.67a42.93,42.93,0,0,1,31.91,14.2,43,43,0,0,1,75,28.83c0,41-74.93,88.53-74.93,88.53s-75-47.49-75-88.48a43.07,43.07,0,0,1,43.05-43.08"/>
      <path class="cls-1" d="M43.05,77.43A42.86,42.86,0,0,1,75,91.63a43,43,0,0,1,75,28.83C150,161.44,75,209,75,209S0,161.5,0,120.51A43.06,43.06,0,0,1,43.05,77.43"/>
    </g>
  </g>
</svg>