<svg xmlns="http://www.w3.org/2000/svg" viewBox="0 0 73.99 88.29">
  <defs>
    <style>.cls-1{fill:#00dc23;}
    </style>
  </defs>
  <g id="Слой_2" data-name="Слой 2">
    <g id="Режим_изоляции" data-name="Режим изоляции">
      <path class="cls-1" d="M20.72,40.27c5.33,0,9.21,4.14,9.38,4.32L27.16,47.3s-2.88-3-6.44-3h0c-2,0-4,1-5.85,3l-2.94-2.71c2.64-2.87,5.61-4.32,8.81-4.32"/>
      <path class="cls-1" d="M44.77,40.27c3.21,0,6.17,1.45,8.81,4.32L50.65,47.3c-1.86-2-3.83-3-5.88-3-3.54,0-6.41,3-6.44,3L35.4,44.59c.16-.18,4-4.32,9.37-4.32"/>
      <path class="cls-1" d="M30.47,61.6v4A1.92,1.92,0,1,0,32,68.74L35,71.28a5.91,5.91,0,1,1-4.56-9.68"/>
      <path class="cls-1" d="M30.5,53.77A5.91,5.91,0,0,1,35,55.84l-3,2.6A1.92,1.92,0,1,0,30.5,61.6v4a5.92,5.92,0,0,1,0-11.83"/>
      <path class="cls-1" d="M37,88.29a37,37,0,1,1,37-37,37,37,0,0,1-37,37m0-66a29,29,0,1,0,29,29,29,29,0,0,0-29-29"/>
      <polygon class="cls-1" points="63.97 33.87 73.78 0 44.55 16.1 63.97 33.87"/>
      <path class="cls-1" d="M59,21.43c5,5.61,6.59,12.33,3.58,15s-9.51.3-14.5-5.31-6.59-12.33-3.58-15S54,15.82,59,21.43"/>
    </g>
  </g> 
</svg>