<svg xmlns="http://www.w3.org/2000/svg" viewBox="0 0 74.08 74.08">
  <defs>
    <style>.cls-1{fill:#00dc23;}
    </style>
  </defs>
  <g id="Слой_2" data-name="Слой 2">
    <g id="Слой_1-2" data-name="Слой 1">
      <path class="cls-1" d="M37,74.08a37,37,0,1,1,37-37A37.08,37.08,0,0,1,37,74.08ZM37,8a29,29,0,1,0,29,29A29.08,29.08,0,0,0,37,8Z"/>
      <polygon class="cls-1" points="20.25 38.23 18.43 34.68 25.59 31 18.43 27.32 20.25 23.76 34.35 31 20.25 38.23"/>
      <path class="cls-1" d="M39.43,53.64v-4A1.92,1.92,0,1,0,38,46.5L34.87,44a5.92,5.92,0,1,1,4.56,9.69Z"/>
      <path class="cls-1" d="M39.4,61.48a5.91,5.91,0,0,1-4.5-2.07l3-2.6a1.92,1.92,0,1,0,1.46-3.17v-4a5.92,5.92,0,1,1,0,11.84Z"/>
      <rect class="cls-1" x="41.66" y="29" width="15.27" height="4"/>
    </g>
  </g>
</svg>