<svg xmlns="http://www.w3.org/2000/svg" viewBox="0 0 460.29 483.5">
  <defs>
    <style>
    .cls-1{fill:#00dc23;}
    .cls-1:hover{fill:#000;}
    .z1{fill:#fff;}
    .z2{fill:#000;}
    </style>
  </defs>
  <g id="Слой_2" data-name="Слой 2">
    <g id="Слой_1-2" data-name="Слой 1">
      <path class="cls-1" d="M208.36,483.5C93.47,483.5,0,390,0,275.14S93.47,66.79,208.36,66.79s208.35,93.46,208.35,208.35S323.24,483.5,208.36,483.5m0-371.71C118.28,111.79,45,185.06,45,275.14S118.28,438.5,208.36,438.5s163.35-73.28,163.35-163.36S298.43,111.79,208.36,111.79"/>
      <rect class="cls-1" x="230.45" y="207.4" width="85.89" height="22.5"/>
      <rect class="cls-1" x="100.37" y="207.4" width="85.89" height="22.5"/>
      <path class="cls-1" d="M238.24,320.32c0,35.52-13.38,64.31-29.88,64.31s-29.88-28.79-29.88-64.31S191.86,256,208.36,256s29.88,28.79,29.88,64.3"/>
      <polygon class="z1" points="378.03 108.86 378.03 122.99 316.79 122.99 316.79 108.86 358.23 64.5 319.16 64.5 319.16 50.38 377.38 50.38 377.38 64.5 335.79 108.86 378.03 108.86"/>
      <path class="z1" d="M380.84,125.8H314v-18l37.79-40.43H316.35V47.57h63.84V65.62l-37.91,40.43h38.56Zm-61.24-5.63h55.62v-8.49H329.3L374.56,63.4V53.19H322V61.7h42.74L319.6,110Z"/>
      <polygon class="z2" points="457.48 67.2 457.48 82.75 390.05 82.75 390.05 67.2 435.68 18.36 392.67 18.36 392.67 2.82 456.75 2.82 456.75 18.36 410.97 67.2 457.48 67.2"/>
      <path class="z2" d="M460.29,85.56H387.24V66.09l42-44.91H389.86V0h69.7V19.47l-42.1,44.92h42.83Zm-67.42-5.62h61.79V70H404.48l49.46-52.76V5.63H395.48v9.92h46.68L392.87,68.31Z"/>
    </g>
  </g>
</svg>