<svg xmlns="http://www.w3.org/2000/svg" viewBox="0 0 430.97 507.9">
  <defs>
    <style>.cls-1{fill:#00dc23;}
    </style>
  </defs>
  <g id="Слой_2" data-name="Слой 2">
    <g id="Слой_1-2" data-name="Слой 1">
      <path class="cls-1" d="M188.94,15.08a53.29,53.29,0,0,0-9.24,5.38,43.89,43.89,0,0,0-68.88-2.91A58.58,58.58,0,0,0,27.2,99.61,48.83,48.83,0,0,0,69,187.84l164.49-75a53.74,53.74,0,0,0-44.57-97.8"/>
      <path class="cls-1" d="M303.54,360.67a50,50,0,1,1-66.2-24.75,50,50,0,0,1,66.2,24.75"/>
      <path class="cls-1" d="M323.91,292.75l-88.11-5.41L249,270.42c40.21-51.75,41.7-52.93,43-54l7.05,8.85,8.06,7.93c-2,2.15-14.79,18.44-27.08,34.17l45.31,2.78Z"/>
      <polygon class="cls-1" points="147.73 373.13 129.98 359.1 158.22 323.38 112.73 321.25 113.79 298.65 203.28 302.84 147.73 373.13"/>
      <path class="cls-1" d="M308.36,489.05C203.25,537,78.76,490.41,30.86,385.3a207.58,207.58,0,0,1-3.45-165.63l8-19.84,20.26,6.94a164,164,0,0,0,205.36-93.59l8-19.84,20.26,6.94A207.56,207.56,0,0,1,412.11,211.54c47.91,105.11,1.37,229.6-103.75,277.51M62.89,255.78A162.38,162.38,0,0,0,72,366.53C109.59,449,207.19,485.44,289.6,447.88S408.5,312.72,370.94,230.3a162.45,162.45,0,0,0-77.59-79.56,209.33,209.33,0,0,1-230.46,105"/>
      <path class="cls-1" d="M145.23,239.41c-19.91-32.52-70.26-77.47-120-110.19L221.79,37.7c-8,59.23-6.73,129,4.9,165.56"/>
    </g>
  </g>
</svg>