<svg xmlns="http://www.w3.org/2000/svg" viewBox="0 0 510 510">
  <defs>
    <style>.cls-1{fill:#00dc23;}
    </style>
  </defs>
  <g id="Слой_2" data-name="Слой 2">
    <g id="Слой_1-2" data-name="Слой 1">
      <path class="cls-1" d="M255,510C114.39,510,0,395.61,0,255S114.39,0,255,0,510,114.39,510,255,395.61,510,255,510Zm0-454.93C144.76,55.07,55.07,144.76,55.07,255S144.76,454.93,255,454.93,454.93,365.24,454.93,255,365.24,55.07,255,55.07Z"/>
      <path class="cls-1" d="M380.86,300.88C364.23,354.84,314,401,254.56,401c-58.4,0-107.95-47.56-125.42-100.09Z"/>
      <path class="cls-1" d="M482.46,127.44a64.06,64.06,0,1,1-128.11,0c0-35.38,64.06-110.88,64.06-110.88S482.46,92.06,482.46,127.44Z"/>
      <rect class="cls-1" x="287.6" y="223.62" width="105.12" height="27.54"/>
      <rect class="cls-1" x="128.4" y="223.62" width="105.12" height="27.54"/>
    </g>
  </g>
</svg>