<svg width="200" height="199" viewBox="0 0 200 199" fill="none" xmlns="http://www.w3.org/2000/svg">
<path d="M99.7996 154.882C89.4742 154.882 83.5292 132.98 81.339 114.206L81.0261 110.764H118.573L118.26 114.206C116.383 132.98 110.438 154.882 99.7996 154.882ZM87.9097 117.022C90.4129 136.734 96.3578 148.624 99.7996 148.624C103.241 148.624 109.186 137.36 111.69 117.022H87.9097Z" fill="#3CE900"/>
<path d="M156.12 85.4198H110.125V95.7453H156.12V85.4198Z" fill="#3CE900"/>
<path d="M89.4742 85.4198H43.4789V95.7453H89.4742V85.4198Z" fill="#3CE900"/>
<path d="M99.7997 199C45.0434 199 0.299683 154.256 0.299683 99.5C0.299683 44.7437 45.0434 0 99.7997 0C119.825 0 138.911 5.94497 155.182 16.8962C159.249 11.2642 162.691 7.50943 162.691 7.19654L165.194 4.3805L167.697 7.19654C170.201 10.3255 192.729 36.9214 192.729 51.0016C192.729 53.8176 192.103 56.9465 191.164 59.7626C196.484 72.2783 199.3 85.7327 199.3 99.1871C199.3 154.256 154.556 199 99.7997 199ZM99.7997 6.25786C48.4852 6.25786 6.55754 48.1855 6.55754 99.5C6.55754 150.814 48.4852 192.742 99.7997 192.742C151.114 192.742 193.042 150.814 193.042 99.5C193.042 86.3585 190.226 73.5299 184.907 61.327L184.281 60.0755L184.907 58.8239C185.845 56.3208 186.471 53.8176 186.471 51.0016C186.471 41.9277 173.017 23.467 165.507 14.0802C163.943 16.2704 161.44 19.3994 158.936 22.8412L156.746 25.6572L154.243 23.7799C138.286 12.2028 119.512 6.25786 99.7997 6.25786ZM99.7997 178.036C56.3075 178.036 21.2635 142.679 21.2635 99.5C21.2635 56.0079 56.6204 20.9638 99.7997 20.9638C116.696 20.9638 132.966 26.283 146.734 36.6085L148.924 38.173L147.672 40.3632C144.856 46.3082 144.23 49.4371 144.23 51.3145C144.23 64.7689 156.433 75.4072 170.514 71.6525L173.33 71.0267L174.268 73.8428C177.084 82.2909 178.649 90.739 178.649 99.5C178.336 142.992 143.292 178.036 99.7997 178.036ZM99.7997 27.2217C59.7494 27.2217 27.5214 59.4497 27.5214 99.5C27.5214 139.55 59.7494 171.778 99.7997 171.778C139.85 171.778 172.078 139.237 172.078 99.5C172.078 92.3035 171.139 85.1069 168.949 78.2233C152.053 80.7264 137.66 67.5849 137.66 51.3145C137.66 48.1855 138.598 44.4308 140.789 40.0503C128.899 31.6022 114.506 27.2217 99.7997 27.2217Z" fill="#3CE900"/>
</svg>
