<svg width="800" height="5326" viewBox="0 0 800 5326" fill="none" xmlns="http://www.w3.org/2000/svg">
<g style="mix-blend-mode:multiply">
<path d="M703.155 1245.29C676.252 1243.89 651.438 1233.88 639.061 1261.39C628.437 1285 627.688 1312.03 617.149 1335.92C602.963 1368.07 571.67 1374.07 539.491 1363.35" stroke="#A091FF" stroke-width="17" stroke-linecap="round"/>
<path d="M397.29 1341.88V1344.56" stroke="#A091FF" stroke-width="17" stroke-linecap="round"/>
<path d="M394 1475V1480.37" stroke="#A091FF" stroke-width="17" stroke-linecap="round"/>
<path d="M479 1461.5C479.713 1467.92 480.914 1467.98 485.83 1467.98" stroke="#A091FF" stroke-width="17" stroke-linecap="round"/>
<path d="M182.649 1505.55C246.283 1501 273.872 1462.23 273.872 1403.59" stroke="#A091FF" stroke-width="17" stroke-linecap="round"/>
<path d="M78.011 1599.45C87.5025 1619.03 79.7537 1637.57 78.011 1658.48" stroke="#A091FF" stroke-width="17" stroke-linecap="round"/>
<path d="M206.796 1808.73C208.552 1835.94 224.613 1851.23 249.724 1857.02" stroke="#A091FF" stroke-width="17" stroke-linecap="round"/>
<path d="M544.857 1953.61C547.105 2004.57 579.497 2035.41 611.932 2071.66" stroke="#A091FF" stroke-width="17" stroke-linecap="round"/>
<path d="M441 1793C458.487 1802.8 481.245 1810.38 481.245 1833.25" stroke="#A091FF" stroke-width="17" stroke-linecap="round"/>
<path d="M295.399 1601.58C276.502 1602.36 326.199 1611.82 300.554 1599" stroke="#A091FF" stroke-width="17" stroke-linecap="round"/>
<path d="M126.495 1742.22C126.802 1747.13 132.29 1752.31 137.664 1748.81C139.18 1747.82 133.86 1741.12 131.65 1749.96" stroke="#A091FF" stroke-width="17" stroke-linecap="round"/>
<path d="M123.5 1439.5C89.5 1439.5 111.5 1478 120.5 1470.5C128.5 1456 87.8488 1467.23 82 1476" stroke="#A091FF" stroke-width="17" stroke-linecap="round"/>
<path d="M353.32 1943.27C344.606 1942.18 355.216 1940.8 352.747 1940.7C345.003 1940.37 331.759 1938.12 348.165 1938.12" stroke="#A091FF" stroke-width="17" stroke-linecap="round"/>
<path d="M160.003 1914.92C160.003 1904.63 153.37 1917.5 162.581 1917.5C167.807 1917.5 152.341 1914.92 147.115 1914.92" stroke="#A091FF" stroke-width="17" stroke-linecap="round"/>
<path d="M283.726 2033.49C283.726 2041.64 285.58 2046.38 275.993 2046.38" stroke="#A091FF" stroke-width="17" stroke-linecap="round"/>
<path d="M353.32 2095.35C368.748 2113.24 370.089 2141.36 357.043 2160.93C342.523 2182.71 324.23 2202.35 308.929 2223.65C290.291 2249.61 276.5 2256.5 289 2319.5" stroke="#A091FF" stroke-width="17" stroke-linecap="round"/>
<path d="M410.026 2280.93C406.136 2280.93 408.471 2271.98 405 2270C403.231 2268.99 396.5 2272.37 391 2280.93C385.5 2289.5 405.085 2289.55 407.449 2291.24" stroke="#A091FF" stroke-width="17" stroke-linecap="round"/>
<path d="M368.785 2342.79C368.785 2353.87 371.049 2364.15 373.368 2374.87C376.098 2387.5 366.847 2399.38 361.053 2409.81" stroke="#A091FF" stroke-width="17" stroke-linecap="round"/>
<path d="M133.124 2405.38C132.51 2400.47 125.657 2400.73 125.391 2407.38C125.226 2411.5 130.774 2411.24 130.116 2407.95C129.181 2403.28 126.437 2405.38 123 2405.38" stroke="#A091FF" stroke-width="17" stroke-linecap="round"/>
<path d="M275.993 2384.04C270.781 2384.04 266.758 2384.98 266 2386.5" stroke="#A091FF" stroke-width="17" stroke-linecap="round"/>
<path d="M363.63 2489.72C360.541 2495.12 347.042 2511.4 351.5 2516.5C352.646 2523 364.171 2528.54 363.63 2536.11" stroke="#A091FF" stroke-width="17" stroke-linecap="round"/>
<path d="M563.231 2490C545.685 2502.93 535.224 2513.76 537.885 2536.83C539.97 2554.89 559.401 2580.78 551.489 2598.97C541.041 2623 503.019 2643.41 478.744 2650.67C452.262 2658.59 430.219 2666.21 406 2680.74" stroke="#A091FF" stroke-width="17" stroke-linecap="round"/>
<path d="M200.396 2613C169.954 2615.34 195.573 2657.08 206.609 2668.11C217.109 2686.11 182.609 2706.61 182.609 2721.61C181.376 2754.09 175.492 2752.14 154 2772.81" stroke="#A091FF" stroke-width="17" stroke-linecap="round"/>
<path d="M324.967 2878.93C294.245 2878.93 321.199 2913.63 306.924 2927.9" stroke="#A091FF" stroke-width="17" stroke-linecap="round"/>
<path d="M274 2480.84C274 2463.85 257.861 2485.44 265.11 2481.41C266.481 2480.65 263.392 2478.26 263.392 2480.84C263.392 2485.59 271.352 2480.69 274 2481.41" stroke="#A091FF" stroke-width="17" stroke-linecap="round"/>
<path d="M460.5 1987C465.5 1989 474.465 2005 467 2019C460 2028.5 470.197 2030.91 474.465 2030.91" stroke="#A091FF" stroke-width="17" stroke-linecap="round"/>
<path d="M350.742 2773.25C350.742 2784.45 356.847 2783.56 366.208 2783.56C373.254 2783.56 386.719 2773.25 371.363 2773.25" stroke="#A091FF" stroke-width="17" stroke-linecap="round"/>
<path d="M396.992 2977.95C401.385 2977.95 405.857 2978.22 410.236 2977.95C414.682 2977.68 415.677 2972.51 410.882 2972.14C406.844 2971.83 385.567 2972.14 399.899 2972.14" stroke="#A091FF" stroke-width="17" stroke-linecap="round"/>
<path d="M553.516 2900C541.585 2931.32 539.21 2949.47 549.479 2979.14C565.589 3025.68 571.897 3072.64 562.237 3120.94" stroke="#A091FF" stroke-width="17" stroke-linecap="round"/>
<path d="M496.792 2768.94C493.863 2760.15 479.342 2763.13 473.535 2766.03" stroke="#A091FF" stroke-width="17" stroke-linecap="round"/>
<path d="M531.677 2367.76V2370.67" stroke="#A091FF" stroke-width="17" stroke-linecap="round"/>
<path d="M127.299 2178C120.246 2183.29 116.057 2190.24 118.9 2199.48C120.081 2203.32 127.723 2203.54 118.577 2201.26" stroke="#A091FF" stroke-width="17" stroke-linecap="round"/>
<path d="M182.829 3103.25C173.86 3111.88 164.131 3119.31 156.665 3129.41C149.594 3138.98 152.001 3151.6 146.006 3159.78C133.375 3177 124.687 3178.46 124.687 3202.09" stroke="#A091FF" stroke-width="17" stroke-linecap="round"/>
<path d="M226.435 2989.87C224.014 2998.83 220.83 3007.31 217.714 3016.04" stroke="#A091FF" stroke-width="17" stroke-linecap="round"/>
<path d="M275.855 3117.78C287.244 3118.38 295.929 3123.6 307.833 3123.6" stroke="#A091FF" stroke-width="17" stroke-linecap="round"/>
<path d="M363.708 1642.25C351.368 1642.25 378.645 1641.11 365 1639.5C352.166 1637.99 352.602 1648.19 363.708 1650.97" stroke="#A091FF" stroke-width="17" stroke-linecap="round"/>
<path d="M365.974 3289.3C355.64 3293.28 348.312 3304.17 338.518 3309.65C320.231 3319.89 304.08 3332.28 287.806 3345.5C262.075 3366.41 258.155 3398.99 243.877 3428.84" stroke="#A091FF" stroke-width="17" stroke-linecap="round"/>
<path d="M136.316 3327.09C136.316 3319.1 127.054 3307.83 121.78 3318.37" stroke="#A091FF" stroke-width="17" stroke-linecap="round"/>
<path d="M487.814 3237C487.814 3241.96 487.548 3256.82 482 3245.72" stroke="#A091FF" stroke-width="17" stroke-linecap="round"/>
<path d="M115.966 3649.78C115.966 3672.54 117.27 3690.99 129.048 3710.83C138.62 3726.95 142.511 3738.39 145.037 3757.34" stroke="#A091FF" stroke-width="17" stroke-linecap="round"/>
<path d="M557.907 3749.86C556.892 3749.86 558.53 3724.11 555 3738.23" stroke="#A091FF" stroke-width="17" stroke-linecap="round"/>
<path d="M326 4048C338.416 4089.82 388.585 4128.18 371.544 4175.43C364.451 4195.09 352.5 4212.9 349.903 4234.05C347.495 4253.65 351.936 4268.25 357.978 4286.38" stroke="#A091FF" stroke-width="17" stroke-linecap="round"/>
<path d="M650.866 3882.34C643.026 3905.86 608.465 3923.33 593.371 3941.78C562.891 3979.03 584.298 4041.3 604.353 4077.12" stroke="#A091FF" stroke-width="17" stroke-linecap="round"/>
<path d="M463 4462C464.479 4471.37 472.723 4475.93 480.119 4481.06C486.177 4485.25 519.578 4499.83 520.98 4507.54C522.894 4518.07 519.122 4528.1 515.327 4537.58" stroke="#A091FF" stroke-width="17" stroke-linecap="round"/>
<path d="M503.471 3976.33C517.428 3975.42 440.971 3953.82 429.887 3945C407.471 3919.32 392.066 3916.9 395.471 3900.83C403.642 3862.26 457.876 3880.83 410.471 3976.33" stroke="#A091FF" stroke-width="17" stroke-linecap="round"/>
<path d="M674.123 4274.8C674.123 4300.58 643.687 4318.55 632.132 4340.04C620.899 4360.94 621.796 4382.82 621.796 4405.61" stroke="#A091FF" stroke-width="17" stroke-linecap="round"/>
<path d="M147.944 4710.86C153.541 4728.35 165.643 4735.36 180.729 4745.42C205.457 4761.9 174.972 4816.66 168.293 4835.86" stroke="#A091FF" stroke-width="17" stroke-linecap="round"/>
<path d="M395.045 4992.84C395.045 4980.71 394.444 4977.71 406.673 4973.78C423.115 4968.51 441.695 4966.37 455.77 4955.05C473.503 4940.79 426.858 4906.23 418.301 4899.82" stroke="#A091FF" stroke-width="17" stroke-linecap="round"/>
<path d="M490.5 5268C490.237 5258.79 484.063 5238.37 486.779 5229.44C490.945 5215.76 499 5210 512.781 5199.24C528.5 5186.97 534.97 5181.35 542.013 5168.56C556.03 5143.11 554.933 5120.63 554.933 5091.68" stroke="#A091FF" stroke-width="17" stroke-linecap="round"/>
<path d="M208.992 5027.73C201.946 5027.12 182.295 5018.5 175.723 5030C171.292 5037.75 172.797 5047.24 175.723 5051C180 5056.5 190 5068.5 161.5 5096.5C127.787 5129.62 188.068 5175.99 235.156 5175.99" stroke="#A091FF" stroke-width="17" stroke-linecap="round"/>
<path d="M143.049 4426.73C147.727 4426.73 149.575 4411.64 146.812 4406.11C145.85 4404.19 139.549 4428.24 143.049 4426.73Z" stroke="#A091FF" stroke-width="17" stroke-linecap="round"/>
<path d="M287.483 4806.79C285.617 4815.19 275.152 4838.87 283.5 4818" stroke="#A091FF" stroke-width="17" stroke-linecap="round"/>
<path d="M231.173 4286C229.307 4294.4 218.841 4318.08 227.189 4297.21" stroke="#A091FF" stroke-width="17" stroke-linecap="round"/>
<path d="M395.045 5132.38C391.986 5132.57 386.323 5135.29 386.323 5135.29" stroke="#A091FF" stroke-width="17" stroke-linecap="round"/>
<path d="M531.677 4792.25C530.034 4798.83 511.816 4794.89 524.247 4785.47C538.416 4774.74 533.202 4798.34 528.77 4803.88" stroke="#A091FF" stroke-width="17" stroke-linecap="round"/>
<path d="M593.771 4627.29C568.395 4606.67 603.106 4628.41 597.441 4635.38" stroke="#A091FF" stroke-width="17" stroke-linecap="round"/>
<path d="M607.26 4957.96C607.718 4961.62 609.117 4960.06 607.26 4963.77" stroke="#A091FF" stroke-width="17" stroke-linecap="round"/>
<path d="M709 3754C709.458 3757.66 710.857 3756.1 709 3759.81" stroke="#A091FF" stroke-width="17" stroke-linecap="round"/>
<path d="M179 3980C179.458 3983.66 180.857 3982.1 179 3985.81" stroke="#A091FF" stroke-width="17" stroke-linecap="round"/>
<path d="M121.78 4164.33C135.944 4163.44 106.022 4156.86 124.687 4164.33" stroke="#A091FF" stroke-width="17" stroke-linecap="round"/>
</g>
</svg>
