<svg width="543" height="542" viewBox="0 0 543 542" fill="none" xmlns="http://www.w3.org/2000/svg">
<path d="M90.3651 60.2355C110.109 40.2084 131.647 29.4475 142.416 24.0671C171.433 10.0182 195.663 6.43126 217.8 3.14322C258.783 -2.53612 291.09 0.75192 312.329 3.14322C335.363 5.83343 353.611 9.71929 368.568 13.0073C391.602 18.0888 404.166 20.7791 420.619 27.0562C438.268 33.6323 457.414 40.8062 476.858 57.5453C493.012 71.2953 501.687 85.3441 509.764 97.8985C517.242 109.855 530.405 130.779 537.285 160.371C538.481 165.154 540.276 174.121 541.473 214.474C542.669 256.621 543.268 277.545 541.473 292.192C536.687 330.452 524.422 358.55 516.943 375.588C503.781 404.882 489.721 425.208 478.653 440.751C462.2 464.066 453.824 475.724 441.559 486.485C410.448 513.985 374.85 518.169 309.936 525.343C275.834 529.229 249.808 531.919 215.407 525.343C196.86 521.756 174.125 517.273 149.595 501.729C143.912 498.142 137.929 493.957 93.3566 446.131C58.3568 408.469 53.2714 401.892 48.186 392.028C40.1091 376.186 35.3228 360.045 31.7331 333.74C26.9468 299.963 18.5708 231.811 45.1945 147.817C55.6645 113.741 64.938 86.2409 90.3651 60.2355Z" fill="#FF7A00"/>
</svg>
