<svg width="1279" height="1274" viewBox="0 0 1279 1274" fill="none" xmlns="http://www.w3.org/2000/svg">
<path d="M805.198 329.05C741.4 452.707 725.266 496.36 680.075 484.407C634.884 472.453 639.051 435.327 641.547 285.763C644.042 136.199 721.478 118.452 766.669 130.406C811.86 142.359 868.995 205.393 805.198 329.05Z" fill="url(#paint0_linear_206_1527)"/>
<path d="M630.439 986.513C637.821 847.933 645.959 802.165 600.768 790.211C555.577 778.258 540.382 812.467 466.788 943.225C393.195 1073.98 451.268 1127.57 496.459 1139.53C541.65 1151.48 623.058 1125.09 630.439 986.513Z" fill="url(#paint1_linear_206_1527)"/>
<path d="M935.791 460.346C814.062 529.753 776.446 557.689 745.141 523.368C713.836 489.046 737.814 460.149 822.424 336.056C907.035 211.963 981.769 238.713 1013.07 273.035C1044.38 307.356 1057.52 390.94 935.791 460.346Z" fill="url(#paint2_linear_206_1527)"/>
<path d="M810.038 937.266C739.772 817.074 721.346 774.314 676.85 788.586C632.355 802.858 638.485 839.719 648.906 988.949C659.328 1138.18 737.598 1151.9 782.094 1137.63C826.589 1123.36 880.304 1057.46 810.038 937.266Z" fill="url(#paint3_linear_206_1527)"/>
<path d="M982.898 639.208C842.408 634.4 795.906 627.186 784.607 672.003C773.308 716.821 808.229 731.207 941.981 801.507C1075.73 871.806 1128.97 813.529 1140.27 768.712C1151.57 723.894 1123.39 644.016 982.898 639.208Z" fill="url(#paint4_linear_206_1527)"/>
<path d="M339.605 472.702C463.709 537.882 507.635 554.587 494.72 598.977C481.805 643.367 444.276 638.59 292.836 633.453C141.396 628.316 124.807 551.569 137.722 507.179C150.636 462.788 215.501 407.523 339.605 472.702Z" fill="url(#paint5_linear_206_1527)"/>
<path d="M465.975 336.075C536.241 456.267 554.667 499.027 599.162 484.755C643.657 470.483 637.528 433.622 627.106 284.392C616.685 135.162 538.414 121.441 493.919 135.713C449.423 149.984 395.708 215.884 465.975 336.075Z" fill="url(#paint6_linear_206_1527)"/>
<path d="M340.221 812.994C461.951 743.588 499.566 715.651 530.871 749.973C562.177 784.295 538.198 813.192 453.588 937.285C368.978 1061.38 294.243 1034.63 262.938 1000.31C231.633 965.984 218.492 882.401 340.221 812.994Z" fill="url(#paint7_linear_206_1527)"/>
<path d="M981.147 635.012C840.763 627.774 793.803 630.979 786.484 585.363C779.165 539.747 815.218 528.404 954.643 469.822C1094.07 411.239 1141.99 473.854 1149.31 519.47C1156.62 565.086 1121.53 642.25 981.147 635.012Z" fill="url(#paint8_linear_206_1527)"/>
<path d="M935.26 804.068C810.017 741.046 770.972 715.091 741.53 750.983C712.087 786.875 737.564 814.494 828.638 934.045C919.711 1053.6 992.925 1023.02 1022.37 987.131C1051.81 951.238 1060.5 867.091 935.26 804.068Z" fill="url(#paint9_linear_206_1527)"/>
<path d="M338.227 464.953C463.469 527.976 502.514 553.931 531.957 518.038C561.4 482.146 535.922 454.528 444.849 334.976C353.776 215.424 280.562 245.999 251.119 281.891C221.676 317.783 212.985 401.931 338.227 464.953Z" fill="url(#paint10_linear_206_1527)"/>
<path d="M291.415 637.415C431.799 644.654 478.759 641.448 486.078 687.064C493.397 732.68 457.344 744.023 317.919 802.606C178.494 861.188 130.575 798.573 123.256 752.957C115.937 707.341 151.031 630.177 291.415 637.415Z" fill="url(#paint11_linear_206_1527)"/>
<defs>
<linearGradient id="paint0_linear_206_1527" x1="766.578" y1="130.382" x2="673.401" y2="482.642" gradientUnits="userSpaceOnUse">
<stop offset="0.0001" stop-color="#F2B8B8"/>
<stop offset="0.0002" stop-color="#FAE6E6"/>
<stop offset="0.0729167" stop-color="#FFDEDE"/>
<stop offset="1" stop-color="#F3A4A4"/>
</linearGradient>
<linearGradient id="paint1_linear_206_1527" x1="496.368" y1="1139.5" x2="589.544" y2="787.242" gradientUnits="userSpaceOnUse">
<stop offset="0.0001" stop-color="#F2B8B8"/>
<stop offset="0.0002" stop-color="#FAE6E6"/>
<stop offset="0.0729167" stop-color="#FFDEDE"/>
<stop offset="1" stop-color="#F3A4A4"/>
</linearGradient>
<linearGradient id="paint2_linear_206_1527" x1="1013.01" y1="272.965" x2="742.116" y2="520.051" gradientUnits="userSpaceOnUse">
<stop offset="0.0001" stop-color="#F2B8B8"/>
<stop offset="0.0002" stop-color="#FAE6E6"/>
<stop offset="0.0729167" stop-color="#FFDEDE"/>
<stop offset="1" stop-color="#F3A4A4"/>
</linearGradient>
<linearGradient id="paint3_linear_206_1527" x1="782.003" y1="1137.66" x2="670.674" y2="790.567" gradientUnits="userSpaceOnUse">
<stop offset="0.0001" stop-color="#F2B8B8"/>
<stop offset="0.0002" stop-color="#FAE6E6"/>
<stop offset="0.0729167" stop-color="#FFDEDE"/>
<stop offset="1" stop-color="#F3A4A4"/>
</linearGradient>
<linearGradient id="paint4_linear_206_1527" x1="1140.25" y1="768.802" x2="782.915" y2="678.715" gradientUnits="userSpaceOnUse">
<stop offset="0.0001" stop-color="#F2B8B8"/>
<stop offset="0.0002" stop-color="#FAE6E6"/>
<stop offset="0.0729167" stop-color="#FFDEDE"/>
<stop offset="1" stop-color="#F3A4A4"/>
</linearGradient>
<linearGradient id="paint5_linear_206_1527" x1="137.695" y1="507.269" x2="491.457" y2="610.192" gradientUnits="userSpaceOnUse">
<stop offset="0.0001" stop-color="#F2B8B8"/>
<stop offset="0.0002" stop-color="#FAE6E6"/>
<stop offset="0.0729167" stop-color="#FFDEDE"/>
<stop offset="1" stop-color="#F3A4A4"/>
</linearGradient>
<linearGradient id="paint6_linear_206_1527" x1="494.009" y1="135.684" x2="605.338" y2="482.774" gradientUnits="userSpaceOnUse">
<stop offset="0.0001" stop-color="#F2B8B8"/>
<stop offset="0.0002" stop-color="#FAE6E6"/>
<stop offset="0.0729167" stop-color="#FFDEDE"/>
<stop offset="1" stop-color="#F3A4A4"/>
</linearGradient>
<linearGradient id="paint7_linear_206_1527" x1="263.002" y1="1000.38" x2="533.897" y2="753.29" gradientUnits="userSpaceOnUse">
<stop offset="0.0001" stop-color="#F2B8B8"/>
<stop offset="0.0002" stop-color="#FAE6E6"/>
<stop offset="0.0729167" stop-color="#FFDEDE"/>
<stop offset="1" stop-color="#F3A4A4"/>
</linearGradient>
<linearGradient id="paint8_linear_206_1527" x1="1149.29" y1="519.378" x2="785.268" y2="577.783" gradientUnits="userSpaceOnUse">
<stop offset="0.0001" stop-color="#F2B8B8"/>
<stop offset="0.0002" stop-color="#FAE6E6"/>
<stop offset="0.0729167" stop-color="#FFDEDE"/>
<stop offset="1" stop-color="#F3A4A4"/>
</linearGradient>
<linearGradient id="paint9_linear_206_1527" x1="1022.31" y1="987.203" x2="738.639" y2="754.507" gradientUnits="userSpaceOnUse">
<stop offset="0.0001" stop-color="#F2B8B8"/>
<stop offset="0.0002" stop-color="#FAE6E6"/>
<stop offset="0.0729167" stop-color="#FFDEDE"/>
<stop offset="1" stop-color="#F3A4A4"/>
</linearGradient>
<linearGradient id="paint10_linear_206_1527" x1="251.179" y1="281.818" x2="534.847" y2="514.515" gradientUnits="userSpaceOnUse">
<stop offset="0.0001" stop-color="#F2B8B8"/>
<stop offset="0.0002" stop-color="#FAE6E6"/>
<stop offset="0.0729167" stop-color="#FFDEDE"/>
<stop offset="1" stop-color="#F3A4A4"/>
</linearGradient>
<linearGradient id="paint11_linear_206_1527" x1="123.271" y1="753.05" x2="487.294" y2="694.644" gradientUnits="userSpaceOnUse">
<stop offset="0.0001" stop-color="#F2B8B8"/>
<stop offset="0.0002" stop-color="#FAE6E6"/>
<stop offset="0.0729167" stop-color="#FFDEDE"/>
<stop offset="1" stop-color="#F3A4A4"/>
</linearGradient>
</defs>
</svg>
