<svg width="150" height="150" viewBox="0 0 150 150" fill="none" xmlns="http://www.w3.org/2000/svg">
<path d="M74.621 141.735C37.6204 141.735 7.5 111.615 7.5 74.6174C7.5 37.6195 37.6204 7.5 74.621 7.5C111.622 7.5 141.742 37.6195 141.742 74.6174C141.742 111.615 111.622 141.735 74.621 141.735Z" stroke="#53AA32" stroke-width="15"/>
<path d="M36.5 71C42 65 46 63.5 52.5 63.5C58 63.5 64 68 67 71" stroke="#53AA32" stroke-width="8"/>
<path d="M83 71C88.5 65 92.5 63.5 99 63.5C104.5 63.5 110.5 68 113.5 71" stroke="#53AA32" stroke-width="8"/>
<path d="M98.6209 98.6162C98.6209 102.448 95.5957 105.473 91.7638 105.473C87.9319 105.473 84.9067 102.448 84.9067 98.6162C84.9067 94.7845 87.9319 91.7595 91.7638 91.7595C95.5957 91.5578 98.6209 94.7845 98.6209 98.6162Z" fill="#53AA32"/>
</svg>
